HIERARCHY
ROOT Hips
{
	OFFSET -0.001795 -0.223333 0.028219
	CHANNELS 6 Xposition Yposition Zposition Zrotation Yrotation Xrotation 
	JOINT LeftUpLeg
	{
		OFFSET 0.069520 -0.091406 -0.006815
		CHANNELS 3 Zrotation Yrotation Xrotation
		JOINT LeftLeg
		{
			OFFSET 0.034277 -0.375199 -0.004496
			CHANNELS 3 Zrotation Yrotation Xrotation
			JOINT LeftFoot
			{
				OFFSET -0.013596 -0.397961 -0.043693
				CHANNELS 3 Zrotation Yrotation Xrotation
				JOINT LeftToe
				{
					OFFSET 0.026358 -0.055791 0.119288
					CHANNELS 3 Zrotation Yrotation Xrotation
					End Site
					{
						OFFSET 0.000000 0.000000 0.000000
					}
				}
			}
		}
	}
	JOINT RightUpLeg
	{
		OFFSET -0.067670 -0.090522 -0.004320
		CHANNELS 3 Zrotation Yrotation Xrotation
		JOINT RightLeg
		{
			OFFSET -0.038290 -0.382569 -0.008850
			CHANNELS 3 Zrotation Yrotation Xrotation
			JOINT RightFoot
			{
				OFFSET 0.015774 -0.398415 -0.042312
				CHANNELS 3 Zrotation Yrotation Xrotation
				JOINT RightToe
				{
					OFFSET -0.025372 -0.048144 0.123348
					CHANNELS 3 Zrotation Yrotation Xrotation
					End Site
					{
						OFFSET 0.000000 0.000000 0.000000
					}
				}
			}
		}
	}
	JOINT Spine
	{
		OFFSET -0.002533 0.108963 -0.026696
		CHANNELS 3 Zrotation Yrotation Xrotation
		JOINT Spine1
		{
			OFFSET 0.005487 0.135180 0.001092
			CHANNELS 3 Zrotation Yrotation Xrotation
			JOINT Spine2
			{
				OFFSET 0.001457 0.052922 0.025425
				CHANNELS 3 Zrotation Yrotation Xrotation
				JOINT Neck
				{
					OFFSET -0.002778 0.213870 -0.042857
					CHANNELS 3 Zrotation Yrotation Xrotation
					JOINT Head
					{
						OFFSET 0.005152 0.064970 0.051349
						CHANNELS 3 Zrotation Yrotation Xrotation
						End Site
						{
							OFFSET 0.000000 0.000000 0.000000
						}
					}
				}
				JOINT LeftShoulder
				{
					OFFSET 0.078845 0.121749 -0.034090
					CHANNELS 3 Zrotation Yrotation Xrotation
					JOINT LeftArm
					{
						OFFSET 0.090977 0.030469 -0.008868
						CHANNELS 3 Zrotation Yrotation Xrotation
						JOINT LeftForeArm
						{
							OFFSET 0.259612 -0.012772 -0.027456
							CHANNELS 3 Zrotation Yrotation Xrotation
							JOINT LeftHand
							{
								OFFSET 0.249234 0.008986 -0.001171
								CHANNELS 3 Zrotation Yrotation Xrotation
								End Site
								{
									OFFSET 0.000000 0.000000 0.000000
								}
							}
						}
					}
				}
				JOINT RightShoulder
				{
					OFFSET -0.081759 0.118833 -0.038615
					CHANNELS 3 Zrotation Yrotation Xrotation
					JOINT RightArm
					{
						OFFSET -0.096012 0.032551 -0.009143
						CHANNELS 3 Zrotation Yrotation Xrotation
						JOINT RightForeArm
						{
							OFFSET -0.253742 -0.013329 -0.021401
							CHANNELS 3 Zrotation Yrotation Xrotation
							JOINT RightHand
							{
								OFFSET -0.255298 0.007772 -0.005559
								CHANNELS 3 Zrotation Yrotation Xrotation
								End Site
								{
									OFFSET 0.000000 0.000000 0.000000
								}
							}
						}
					}
				}
			}
		}
	}
}
MOTION
Frames: 16
Frame Time: 0.050000
0.000000 0.912686 0.000000 -4.942717 -6.745656 -0.756479 2.595960 0.404036 5.207206 0.103818 -0.410548 29.747761 2.035633 0.470371 -10.580714 0.000000 0.000000 0.000000 -6.643594 1.850978 -27.727935 7.987931 -1.056284 20.374641 -10.169063 -24.112071 11.792864 0.000000 0.000000 0.000000 -1.872717 -0.263006 17.441282 5.344340 -1.070964 -20.799857 0.907565 3.974796 26.880574 1.079687 1.410419 -32.518291 0.000000 0.000000 0.000000 -29.331434 -0.773629 -1.370239 -44.496132 -10.555890 -3.674220 -15.938178 -36.658724 7.339683 0.000000 0.000000 0.000000 23.770769 9.439904 4.184166 46.749828 8.312806 -3.584701 7.198362 27.423657 2.760523 0.000000 0.000000 0.000000 
0.024627 0.920081 -0.055837 -5.581006 -9.749700 1.261229 2.685050 0.341412 4.237695 -0.835978 0.152518 23.965663 4.112914 5.689856 -15.227788 0.000000 0.000000 0.000000 -5.851492 2.486426 -30.012144 9.973012 -1.424139 25.014395 -11.746450 -27.300863 8.936683 0.000000 0.000000 0.000000 -3.384216 0.066808 16.419653 5.604940 -1.273142 -19.578779 4.230023 4.784004 26.325614 -1.491454 2.567446 -33.133365 0.000000 0.000000 0.000000 -29.674006 -1.732429 -0.324433 -44.684227 -11.314216 -3.497142 -17.988987 -37.610949 8.414852 0.000000 0.000000 0.000000 19.716613 11.045057 4.599947 48.280893 8.856858 -3.212754 8.231267 30.040359 3.253643 0.000000 0.000000 0.000000 
0.050042 0.924747 -0.111785 -4.505262 -12.583510 0.622951 1.887263 0.481768 5.163831 -2.392829 0.637626 17.844772 4.344851 7.910373 -12.594806 0.000000 0.000000 0.000000 -6.192903 2.722293 -30.819598 12.097377 -1.829667 29.740119 -13.863839 -31.047224 9.442371 0.000000 0.000000 0.000000 -2.211986 -0.019089 18.131030 4.110132 -1.002147 -18.611037 2.907370 5.279330 26.943019 -2.963873 3.162347 -33.977685 0.000000 0.000000 0.000000 -30.337916 -2.922415 0.967394 -42.247464 -14.939471 -2.455354 -14.773738 -38.232065 7.439107 0.000000 0.000000 0.000000 17.932418 12.813159 5.216029 49.707035 12.474855 -1.920598 5.179572 33.244588 2.785243 0.000000 0.000000 0.000000 
0.075690 0.929964 -0.168098 -4.307925 -15.267092 2.286431 0.075723 0.358237 3.423512 -1.821503 0.553097 16.480633 4.230803 8.470082 -11.149484 0.000000 0.000000 0.000000 -5.845879 3.255704 -32.425610 13.223693 -1.891643 31.955201 -15.346348 -33.505229 10.737601 0.000000 0.000000 0.000000 -3.334589 0.373888 20.151278 4.102275 -0.890765 -20.548014 3.349980 5.678461 28.348853 -5.658947 4.281284 -36.662192 0.000000 0.000000 0.000000 -31.742461 -1.942133 0.784837 -39.828980 -17.087330 -2.056855 -14.306605 -39.646955 7.673675 0.000000 0.000000 0.000000 19.186818 14.436983 5.900126 46.786644 14.304478 -1.259483 4.203258 35.547988 2.630393 0.000000 0.000000 0.000000 
0.102319 0.931414 -0.224341 -4.016007 -16.281695 3.839550 -0.528103 -0.019996 -0.142848 -1.281554 0.391160 15.074045 4.655638 9.990636 -9.165616 0.000000 0.000000 0.000000 -6.665358 3.387294 -33.889162 16.138828 -2.819750 34.323727 -16.629629 -35.556908 11.598233 0.000000 0.000000 0.000000 -3.472360 0.603750 22.648237 4.166863 -0.914632 -20.454257 3.163176 5.682376 27.156998 -5.816517 4.271984 -36.986870 0.000000 0.000000 0.000000 -32.654964 -3.165538 1.755825 -38.904423 -18.470236 -1.602615 -11.228713 -39.413221 6.458410 0.000000 0.000000 0.000000 18.193601 15.098645 6.070038 47.135686 17.141859 -0.025084 2.931222 36.169981 2.237807 0.000000 0.000000 0.000000 
0.127991 0.929788 -0.277525 -4.069917 -17.545506 5.672407 -0.381633 -0.404954 -4.222378 -1.632528 0.604857 16.170191 5.152901 11.559984 -11.834894 0.000000 0.000000 0.000000 -7.171478 3.572610 -34.918186 19.414914 -3.961294 37.846550 -16.951945 -36.598811 10.413838 0.000000 0.000000 0.000000 -3.351483 0.758594 24.157326 3.621170 -0.692807 -21.665181 2.726664 4.352159 27.433449 -6.548254 4.295804 -37.181553 0.000000 0.000000 0.000000 -29.867163 -3.323197 2.713899 -41.174059 -20.080156 -1.240101 -8.883844 -39.312050 5.836647 0.000000 0.000000 0.000000 17.289460 17.189164 6.629465 47.939187 19.150006 0.862042 0.613959 37.258755 1.439291 0.000000 0.000000 0.000000 
0.152483 0.924494 -0.327153 -4.137900 -18.335426 6.380641 0.190849 -0.628207 -7.608136 -2.540664 1.015240 17.592509 5.076997 11.387470 -12.465381 0.000000 0.000000 0.000000 -5.610369 3.749043 -33.206010 18.850769 -3.517389 38.323437 -16.857596 -36.988398 8.239442 0.000000 0.000000 0.000000 -3.643571 1.000009 25.535843 4.336775 -0.939901 -20.842308 1.806257 4.316157 26.094328 -7.687821 4.795245 -35.571222 0.000000 0.000000 0.000000 -28.865446 -3.625941 2.948676 -41.625722 -20.722572 -0.873818 -7.446675 -38.835135 5.247463 0.000000 0.000000 0.000000 17.069195 18.164135 7.019695 47.999596 20.083603 1.386304 -0.854376 39.050039 0.975607 0.000000 0.000000 0.000000 
0.175738 0.917405 -0.372785 -3.160804 -18.366858 6.646244 -0.135717 -0.871965 -11.126701 -2.833954 1.245204 19.370338 4.572280 9.722655 -13.480163 0.000000 0.000000 0.000000 -4.605214 3.498860 -30.355355 17.888270 -3.002549 36.876600 -16.378461 -36.673496 5.462864 0.000000 0.000000 0.000000 -4.821991 1.418175 26.347461 5.348748 -1.026807 -22.471186 1.293698 3.266864 27.806190 -7.234663 4.439999 -35.254439 0.000000 0.000000 0.000000 -29.119211 -4.291417 3.990467 -41.164624 -23.197537 -0.447763 -5.074814 -38.251306 4.454080 0.000000 0.000000 0.000000 17.457662 18.814903 7.164373 46.546124 20.081640 1.154528 0.125611 41.608621 1.316463 0.000000 0.000000 0.000000 
0.198579 0.913010 -0.414473 -3.611598 -20.591050 7.280794 0.509895 -0.926952 -15.347272 -4.375329 2.232636 22.295755 5.365944 12.169394 -13.090574 0.000000 0.000000 0.000000 -2.933167 3.999345 -30.457117 16.889688 -2.219576 36.133352 -16.351006 -37.304964 2.893123 0.000000 0.000000 0.000000 -5.097349 1.697673 26.561615 4.933455 -1.052918 -21.279366 2.171759 4.127843 26.908572 -7.759905 4.627788 -35.199486 0.000000 0.000000 0.000000 -28.597850 -5.894803 5.074004 -40.542795 -24.762940 0.193114 -3.833267 -38.415307 3.962191 0.000000 0.000000 0.000000 17.706328 18.613672 6.926728 45.456816 18.511911 0.711405 1.465668 44.988783 1.833427 0.000000 0.000000 0.000000 
0.220888 0.914506 -0.450357 -3.813420 -22.168026 8.672426 0.257372 -0.977604 -19.039600 -4.365295 2.625841 24.478841 4.772717 10.497293 -13.736972 0.000000 0.000000 0.000000 -2.586112 4.232048 -30.701958 18.968066 -2.655737 37.668513 -15.962828 -37.025409 1.985737 0.000000 0.000000 0.000000 -5.846060 1.969650 25.838910 6.389865 -1.326145 -21.822388 1.761706 3.925141 27.744359 -7.259444 4.215228 -35.267660 0.000000 0.000000 0.000000 -29.188307 -5.677648 5.540838 -38.543183 -24.929109 -0.216704 -4.667063 -39.888498 4.543189 0.000000 0.000000 0.000000 16.295942 18.610443 6.620618 46.477918 18.451981 0.648417 4.273883 45.932588 2.884521 0.000000 0.000000 0.000000 
0.241105 0.922630 -0.479138 -3.400698 -23.240254 9.887814 0.028013 -0.986272 -19.991545 -4.473864 2.469944 22.392604 5.244404 11.777213 -10.215352 0.000000 0.000000 0.000000 -2.288545 4.533752 -31.517197 19.958899 -2.878910 41.693917 -17.063533 -37.918278 6.635951 0.000000 0.000000 0.000000 -5.099012 1.641784 24.126681 5.512342 -1.124383 -21.860493 0.932740 2.702378 27.926127 -6.460669 3.532774 -35.024893 0.000000 0.000000 0.000000 -28.961830 -5.547551 6.242204 -38.080166 -25.047224 -0.419885 -4.677120 -41.326733 4.865593 0.000000 0.000000 0.000000 17.223352 19.144825 6.364195 47.433044 16.566871 0.110493 6.623225 44.508055 3.463935 0.000000 0.000000 0.000000 
0.259252 0.933031 -0.501336 -2.555658 -24.637586 10.112632 -0.954555 -1.114811 -18.362560 -4.367168 1.944799 17.636741 5.477850 12.568617 -8.055323 0.000000 0.000000 0.000000 -2.141362 4.097635 -29.031091 21.775246 -3.233208 43.979526 -16.500172 -35.927426 10.541383 0.000000 0.000000 0.000000 -5.068289 1.576187 22.777449 5.515325 -1.104007 -22.116916 0.262648 3.106561 27.857740 -5.360102 2.956571 -34.902233 0.000000 0.000000 0.000000 -28.970222 -6.267980 6.922743 -37.651587 -24.669283 -0.619161 -5.871788 -41.110508 5.246562 0.000000 0.000000 0.000000 17.441394 17.679400 5.483464 48.351638 14.336081 -0.731484 11.367725 42.335624 4.979870 0.000000 0.000000 0.000000 
0.275477 0.941781 -0.518670 -1.611286 -25.598138 10.764641 -1.978333 -1.210885 -16.165585 -4.039316 1.302799 11.757540 5.865717 13.243148 -4.209787 0.000000 0.000000 0.000000 -0.874554 3.606723 -25.624413 22.514031 -3.156273 43.529561 -14.787106 -32.793392 11.619268 0.000000 0.000000 0.000000 -4.264674 1.235838 20.921217 4.559254 -0.811092 -22.927145 -0.926469 2.513814 28.439194 -4.607379 2.366396 -34.450827 0.000000 0.000000 0.000000 -28.603965 -5.730220 7.177610 -38.520619 -25.112812 -0.626707 -5.120663 -40.508460 5.066623 0.000000 0.000000 0.000000 17.793540 17.424645 4.897487 49.267717 11.488312 -1.748045 14.474455 40.081741 5.574392 0.000000 0.000000 0.000000 
0.290294 0.946332 -0.532724 -0.375735 -27.422330 11.053387 -3.844890 -1.390527 -15.207847 -4.071093 1.092570 8.269634 6.922838 14.926126 0.332073 0.000000 0.000000 0.000000 0.948906 2.922515 -21.099566 20.339580 -1.815768 39.738255 -14.406677 -31.875876 10.140449 0.000000 0.000000 0.000000 -4.247138 1.129284 18.931169 4.474164 -0.825702 -22.676719 -1.762685 3.024489 27.436875 -4.427912 2.193365 -34.474084 0.000000 0.000000 0.000000 -29.405602 -5.260979 7.211903 -37.933353 -23.518922 -1.202963 -7.416243 -39.507520 5.694809 0.000000 0.000000 0.000000 18.197867 16.860841 4.352383 49.042019 9.084202 -2.514430 16.186156 36.384313 5.447076 0.000000 0.000000 0.000000 
0.303468 0.946650 -0.544252 1.055682 -28.915439 10.855213 -4.603204 -1.456333 -15.103319 -5.000276 1.220782 6.298047 7.191727 14.971197 2.705857 0.000000 0.000000 0.000000 1.877491 1.808397 -14.980319 15.697204 -0.469534 30.325726 -13.236378 -29.066078 4.925228 0.000000 0.000000 0.000000 -4.889890 1.314514 18.505585 4.784042 -0.866257 -22.883176 -1.819372 2.699847 26.533808 -4.063604 1.868923 -34.947757 0.000000 0.000000 0.000000 -30.037125 -5.019222 7.598168 -38.884975 -23.508864 -1.232393 -7.784704 -36.123510 5.261371 0.000000 0.000000 0.000000 15.710178 14.497611 3.026372 51.593264 8.169221 -3.159421 17.085498 33.475515 5.065498 0.000000 0.000000 0.000000 
0.314748 0.943534 -0.555288 1.449038 -30.048013 10.417284 -4.224502 -1.453216 -17.064528 -7.053195 2.131014 9.639990 7.929072 16.097120 3.746433 0.000000 0.000000 0.000000 3.058998 0.920205 -9.540304 10.271758 0.215966 20.958383 -11.516800 -24.138548 -0.093720 0.000000 0.000000 0.000000 -3.995912 1.170651 18.899260 4.278655 -0.769723 -23.082566 -1.762894 1.776245 26.109307 -4.598013 1.855611 -35.420782 0.000000 0.000000 0.000000 -31.177567 -4.749618 8.275657 -38.188568 -23.079152 -1.600769 -8.257686 -35.887360 5.331787 0.000000 0.000000 0.000000 17.204864 14.139471 2.123218 49.773393 6.803874 -3.243388 16.659954 33.176365 4.697565 0.000000 0.000000 0.000000 
